<svg width="151" height="48" viewBox="0 0 151 48" fill="none" xmlns="http://www.w3.org/2000/svg">
<path d="M0.283447 46.9767V3.03639H18.432C28.2981 3.03639 34.1446 8.2739 34.1446 17.1046V17.1655C34.1446 22.9511 31.0691 27.7623 26.197 29.6807L35.454 46.9767H25.0398L16.8486 31.051H9.47955V46.9767H0.283447ZM9.47955 24.0778H17.4272C21.9948 24.0778 24.7353 21.4895 24.7353 17.1655V17.1046C24.7353 12.9024 21.8425 10.2227 17.3054 10.2227H9.47955V24.0778Z" fill="#F5F5F5"/>
<path d="M54.0289 47.6466C44.0411 47.6466 37.9814 41.1606 37.9814 30.716V30.6856C37.9814 20.3019 44.102 13.6637 53.6635 13.6637C63.225 13.6637 69.2238 20.1497 69.2238 30.0157V32.7562H46.7512C46.8425 37.9633 49.6744 41.0084 54.2116 41.0084C57.8657 41.0084 60.0886 38.9986 60.728 37.1716L60.7889 36.9889H68.9497L68.8584 37.3238C67.8535 42.135 63.3468 47.6466 54.0289 47.6466ZM53.8157 20.3019C50.1616 20.3019 47.4211 22.738 46.8425 27.1533H60.6976C60.1495 22.6466 57.5003 20.3019 53.8157 20.3019Z" fill="#F5F5F5"/>
<path d="M93.158 47.6466C88.4686 47.6466 84.8754 45.2715 83.1093 41.4042H82.9266V46.9767H74.035V3.03639H82.9266V19.9974H83.1093C84.9059 16.0388 88.5295 13.6637 93.1884 13.6637C101.38 13.6637 106.465 19.9974 106.465 30.6247V30.6551C106.465 41.252 101.38 47.6466 93.158 47.6466ZM90.2043 40.2776C94.6196 40.2776 97.4211 36.593 97.4211 30.6551V30.6247C97.4211 24.6564 94.6196 21.0327 90.2043 21.0327C85.9107 21.0327 82.9266 24.7477 82.9266 30.6247V30.6551C82.9266 36.5626 85.8803 40.2776 90.2043 40.2776Z" fill="#F5F5F5"/>
<path d="M115.661 10.1314C112.981 10.1314 110.911 8.0303 110.911 5.50289C110.911 2.97549 112.981 0.87439 115.661 0.87439C118.341 0.87439 120.411 2.97549 120.411 5.50289C120.411 8.0303 118.341 10.1314 115.661 10.1314ZM111.215 46.9767V14.3336H120.107V46.9767H111.215Z" fill="#F5F5F5"/>
<path d="M126.288 46.9767V3.03639H135.18V46.9767H126.288Z" fill="#F5F5F5"/>
<path d="M141.392 46.9767V3.03639H150.283V46.9767H141.392Z" fill="#F5F5F5"/>
</svg>
